<svg width="40" height="40" viewBox="0 0 40 40" fill="none" xmlns="http://www.w3.org/2000/svg">
<path d="M25.0002 37.9168H15.0002C5.95016 37.9168 2.0835 34.0502 2.0835 25.0002V15.0002C2.0835 5.95016 5.95016 2.0835 15.0002 2.0835H18.3335C19.0168 2.0835 19.5835 2.65016 19.5835 3.3335C19.5835 4.01683 19.0168 4.5835 18.3335 4.5835H15.0002C7.31683 4.5835 4.5835 7.31683 4.5835 15.0002V25.0002C4.5835 32.6835 7.31683 35.4168 15.0002 35.4168H25.0002C32.6835 35.4168 35.4168 32.6835 35.4168 25.0002V21.6668C35.4168 20.9835 35.9835 20.4168 36.6668 20.4168C37.3502 20.4168 37.9168 20.9835 37.9168 21.6668V25.0002C37.9168 34.0502 34.0502 37.9168 25.0002 37.9168Z" fill="#4921FF"/>
<path d="M14.1667 29.4834C13.1501 29.4834 12.2167 29.1168 11.5334 28.4501C10.7167 27.6334 10.3667 26.4501 10.5501 25.2001L11.2667 20.1834C11.4001 19.2168 12.0334 17.9668 12.7167 17.2834L25.8501 4.1501C29.1667 0.833431 32.5334 0.833431 35.8501 4.1501C37.6667 5.96676 38.4834 7.81676 38.3167 9.66676C38.1667 11.1668 37.3667 12.6334 35.8501 14.1334L22.7167 27.2668C22.0334 27.9501 20.7834 28.5834 19.8167 28.7168L14.8001 29.4334C14.5834 29.4834 14.3667 29.4834 14.1667 29.4834ZM27.6167 5.91676L14.4834 19.0501C14.1667 19.3668 13.8001 20.1001 13.7334 20.5334L13.0167 25.5501C12.9501 26.0334 13.0501 26.4334 13.3001 26.6834C13.5501 26.9334 13.9501 27.0334 14.4334 26.9668L19.4501 26.2501C19.8834 26.1834 20.6334 25.8168 20.9334 25.5001L34.0667 12.3668C35.1501 11.2834 35.7167 10.3168 35.8 9.41676C35.9 8.33343 35.3334 7.18343 34.0667 5.9001C31.4001 3.23343 29.5667 3.98343 27.6167 5.91676Z" fill="#4921FF"/>
<path d="M33.0831 16.3835C32.9664 16.3835 32.8498 16.3668 32.7498 16.3335C28.3664 15.1001 24.8831 11.6168 23.6498 7.23346C23.4664 6.56679 23.8498 5.88346 24.5164 5.68346C25.1831 5.50013 25.8664 5.88346 26.0498 6.55013C27.0498 10.1001 29.8664 12.9168 33.4164 13.9168C34.0831 14.1001 34.4664 14.8001 34.2831 15.4668C34.1331 16.0335 33.6331 16.3835 33.0831 16.3835Z" fill="#4921FF"/>
</svg>
