<svg width="40" height="40" viewBox="0 0 40 40" fill="none" xmlns="http://www.w3.org/2000/svg">
<path d="M23.3335 11.2502H16.6668C15.0668 11.2502 12.0835 11.2502 12.0835 6.66683C12.0835 2.0835 15.0668 2.0835 16.6668 2.0835H23.3335C24.9335 2.0835 27.9168 2.0835 27.9168 6.66683C27.9168 8.26683 27.9168 11.2502 23.3335 11.2502ZM16.6668 4.5835C15.0168 4.5835 14.5835 4.5835 14.5835 6.66683C14.5835 8.75016 15.0168 8.75016 16.6668 8.75016H23.3335C25.4168 8.75016 25.4168 8.31683 25.4168 6.66683C25.4168 4.5835 24.9835 4.5835 23.3335 4.5835H16.6668Z" fill="#4921FF"/>
<path d="M23.3333 37.9169H15C5.63333 37.9169 3.75 33.6169 3.75 26.6669V16.6669C3.75 9.06686 6.5 5.81686 13.2667 5.46686C13.9167 5.43352 14.55 5.95019 14.5833 6.65019C14.6167 7.35019 14.0833 7.91686 13.4 7.95019C8.66667 8.21686 6.25 9.63352 6.25 16.6669V26.6669C6.25 32.8335 7.46667 35.4169 15 35.4169H23.3333C24.0167 35.4169 24.5833 35.9835 24.5833 36.6669C24.5833 37.3502 24.0167 37.9169 23.3333 37.9169Z" fill="#4921FF"/>
<path d="M34.9999 26.2502C34.3165 26.2502 33.7499 25.6835 33.7499 25.0002V16.6669C33.7499 9.63355 31.3332 8.21688 26.5999 7.95021C25.9165 7.91688 25.3832 7.31688 25.4165 6.63355C25.4499 5.95021 26.0499 5.41688 26.7332 5.45021C33.4999 5.81688 36.2499 9.06688 36.2499 16.6502V24.9835C36.2499 25.6835 35.6832 26.2502 34.9999 26.2502Z" fill="#4921FF"/>
<path d="M25 32.9165C24.3167 32.9165 23.75 32.3498 23.75 31.6665V26.6665C23.75 25.9832 24.3167 25.4165 25 25.4165H30C30.6833 25.4165 31.25 25.9832 31.25 26.6665C31.25 27.3498 30.6833 27.9165 30 27.9165H26.25V31.6665C26.25 32.3498 25.6833 32.9165 25 32.9165Z" fill="#4921FF"/>
<path d="M35 37.9165C34.6833 37.9165 34.3666 37.7998 34.1166 37.5498L24.1833 27.6165C23.7 27.1331 23.7 26.3331 24.1833 25.8498C24.6666 25.3665 25.4666 25.3665 25.95 25.8498L35.8833 35.7831C36.3666 36.2665 36.3666 37.0665 35.8833 37.5498C35.6333 37.7998 35.3166 37.9165 35 37.9165Z" fill="#4921FF"/>
</svg>
