<svg width="40" height="40" viewBox="0 0 40 40" fill="none" xmlns="http://www.w3.org/2000/svg">
<path d="M18.9999 37.9165H12.6666C5.34992 37.9165 2.08325 34.6498 2.08325 27.3332V20.9998C2.08325 13.6832 5.34992 10.4165 12.6666 10.4165H17.6666C18.3499 10.4165 18.9166 10.9832 18.9166 11.6665C18.9166 12.3498 18.3499 12.9165 17.6666 12.9165H12.6666C6.69992 12.9165 4.58325 15.0332 4.58325 20.9998V27.3332C4.58325 33.2998 6.69992 35.4165 12.6666 35.4165H18.9999C24.9666 35.4165 27.0833 33.2998 27.0833 27.3332V22.3332C27.0833 21.6498 27.6499 21.0832 28.3333 21.0832C29.0166 21.0832 29.5833 21.6498 29.5833 22.3332V27.3332C29.5833 34.6498 26.3166 37.9165 18.9999 37.9165Z" fill="#4921FF"/>
<path d="M28.3334 23.5832H23.0001C18.3167 23.5832 16.4167 21.6832 16.4167 16.9998V11.6665C16.4167 11.1665 16.7167 10.6998 17.1834 10.5165C17.6501 10.3165 18.1834 10.4332 18.5501 10.7832L29.2167 21.4498C29.5667 21.7998 29.6834 22.3498 29.4834 22.8165C29.3001 23.2832 28.8334 23.5832 28.3334 23.5832ZM18.9167 14.6832V16.9998C18.9167 20.3165 19.6834 21.0832 23.0001 21.0832H25.3167L18.9167 14.6832Z" fill="#4921FF"/>
<path d="M25.9999 4.5835H19.3333C18.6499 4.5835 18.0833 4.01683 18.0833 3.3335C18.0833 2.65016 18.6499 2.0835 19.3333 2.0835H25.9999C26.6833 2.0835 27.2499 2.65016 27.2499 3.3335C27.2499 4.01683 26.6833 4.5835 25.9999 4.5835Z" fill="#4921FF"/>
<path d="M11.6667 9.5835C10.9834 9.5835 10.4167 9.01683 10.4167 8.3335C10.4167 4.8835 13.2167 2.0835 16.6667 2.0835H21.0334C21.7167 2.0835 22.2834 2.65016 22.2834 3.3335C22.2834 4.01683 21.7167 4.5835 21.0334 4.5835H16.6667C14.6001 4.5835 12.9167 6.26683 12.9167 8.3335C12.9167 9.01683 12.3501 9.5835 11.6667 9.5835Z" fill="#4921FF"/>
<path d="M31.9834 29.5835C31.3001 29.5835 30.7334 29.0168 30.7334 28.3335C30.7334 27.6502 31.3001 27.0835 31.9834 27.0835C33.8834 27.0835 35.4167 25.5335 35.4167 23.6502V13.3335C35.4167 12.6502 35.9834 12.0835 36.6667 12.0835C37.3501 12.0835 37.9167 12.6502 37.9167 13.3335V23.6502C37.9167 26.9168 35.2501 29.5835 31.9834 29.5835Z" fill="#4921FF"/>
<path d="M36.6667 14.5835H31.6667C27.2334 14.5835 25.4167 12.7668 25.4167 8.33348V3.33348C25.4167 2.83348 25.7167 2.36681 26.1834 2.18348C26.6501 1.98348 27.1834 2.10014 27.5501 2.45014L37.5501 12.4501C37.9001 12.8001 38.0167 13.3501 37.8167 13.8168C37.6334 14.2835 37.1667 14.5835 36.6667 14.5835ZM27.9167 6.35014V8.33348C27.9167 11.3835 28.6167 12.0835 31.6667 12.0835H33.6501L27.9167 6.35014Z" fill="#4921FF"/>
</svg>
