<svg width="24" height="25" viewBox="0 0 24 25" fill="none" xmlns="http://www.w3.org/2000/svg">
<path d="M17.45 23.4766C16.32 23.4766 15.13 23.2066 13.9 22.6866C12.7 22.1766 11.49 21.4766 10.31 20.6266C9.14 19.7666 8.01 18.8066 6.94 17.7566C5.88 16.6866 4.92 15.5566 4.07 14.3966C3.21 13.1966 2.52 11.9966 2.03 10.8366C1.51 9.59656 1.25 8.39656 1.25 7.26656C1.25 6.48656 1.39 5.74656 1.66 5.05656C1.94 4.34656 2.39 3.68656 3 3.11656C3.77 2.35656 4.65 1.97656 5.59 1.97656C5.98 1.97656 6.38 2.06656 6.72 2.22656C7.11 2.40656 7.44 2.67656 7.68 3.03656L10 6.30656C10.21 6.59656 10.37 6.87656 10.48 7.15656C10.61 7.45656 10.68 7.75656 10.68 8.04656C10.68 8.42656 10.57 8.79656 10.36 9.14656C10.21 9.41656 9.98 9.70656 9.69 9.99656L9.01 10.7066C9.02 10.7366 9.03 10.7566 9.04 10.7766C9.16 10.9866 9.4 11.3466 9.86 11.8866C10.35 12.4466 10.81 12.9566 11.27 13.4266C11.86 14.0066 12.35 14.4666 12.81 14.8466C13.38 15.3266 13.75 15.5666 13.97 15.6766L13.95 15.7266L14.68 15.0066C14.99 14.6966 15.29 14.4666 15.58 14.3166C16.13 13.9766 16.83 13.9166 17.53 14.2066C17.79 14.3166 18.07 14.4666 18.37 14.6766L21.69 17.0366C22.06 17.2866 22.33 17.6066 22.49 17.9866C22.64 18.3666 22.71 18.7166 22.71 19.0666C22.71 19.5466 22.6 20.0266 22.39 20.4766C22.18 20.9266 21.92 21.3166 21.59 21.6766C21.02 22.3066 20.4 22.7566 19.68 23.0466C18.99 23.3266 18.24 23.4766 17.45 23.4766ZM5.59 3.47656C5.04 3.47656 4.53 3.71656 4.04 4.19656C3.58 4.62656 3.26 5.09656 3.06 5.60656C2.85 6.12656 2.75 6.67656 2.75 7.26656C2.75 8.19656 2.97 9.20656 3.41 10.2466C3.86 11.3066 4.49 12.4066 5.29 13.5066C6.09 14.6066 7 15.6766 8 16.6866C9 17.6766 10.08 18.5966 11.19 19.4066C12.27 20.1966 13.38 20.8366 14.48 21.2966C16.19 22.0266 17.79 22.1966 19.11 21.6466C19.62 21.4366 20.07 21.1166 20.48 20.6566C20.71 20.4066 20.89 20.1366 21.04 19.8166C21.16 19.5666 21.22 19.3066 21.22 19.0466C21.22 18.8866 21.19 18.7266 21.11 18.5466C21.08 18.4866 21.02 18.3766 20.83 18.2466L17.51 15.8866C17.31 15.7466 17.13 15.6466 16.96 15.5766C16.74 15.4866 16.65 15.3966 16.31 15.6066C16.11 15.7066 15.93 15.8566 15.73 16.0566L14.97 16.8066C14.58 17.1866 13.98 17.2766 13.52 17.1066L13.25 16.9866C12.84 16.7666 12.36 16.4266 11.83 15.9766C11.35 15.5666 10.83 15.0866 10.2 14.4666C9.71 13.9666 9.22 13.4366 8.71 12.8466C8.24 12.2966 7.9 11.8266 7.69 11.4366L7.57 11.1366C7.51 10.9066 7.49 10.7766 7.49 10.6366C7.49 10.2766 7.62 9.95656 7.87 9.70656L8.62 8.92656C8.82 8.72656 8.97 8.53656 9.07 8.36656C9.15 8.23656 9.18 8.12656 9.18 8.02656C9.18 7.94656 9.15 7.82656 9.1 7.70656C9.03 7.54656 8.92 7.36656 8.78 7.17656L6.46 3.89656C6.36 3.75656 6.24 3.65656 6.09 3.58656C5.93 3.51656 5.76 3.47656 5.59 3.47656ZM13.95 15.7366L13.79 16.4166L14.06 15.7166C14.01 15.7066 13.97 15.7166 13.95 15.7366Z" fill="#787E85"/>
</svg>
