<svg width="24" height="25" viewBox="0 0 24 25" fill="none" xmlns="http://www.w3.org/2000/svg">
<path d="M22 11.4766H2C1.59 11.4766 1.25 11.1366 1.25 10.7266C1.25 10.3166 1.59 9.97656 2 9.97656H22C22.41 9.97656 22.75 10.3166 22.75 10.7266C22.75 11.1366 22.41 11.4766 22 11.4766Z" fill="#787E85"/>
<path d="M11.5502 21.9763H6.44025C2.46025 21.9763 1.24023 20.7763 1.24023 16.8363V8.61633C1.24023 5.46633 1.91022 3.71633 5.48022 3.50633C5.78022 3.49633 6.10025 3.48633 6.44025 3.48633H17.5502C21.5302 3.48633 22.7502 4.68633 22.7502 8.62633V13.0363C22.7502 13.4463 22.4102 13.7863 22.0002 13.7863C21.5902 13.7863 21.2502 13.4463 21.2502 13.0363V8.62633C21.2502 5.53633 20.7002 4.98633 17.5502 4.98633H6.44025C6.12025 4.98633 5.83023 4.99633 5.55023 5.00633C3.38023 5.13633 2.74023 5.62633 2.74023 8.62633V16.8463C2.74023 19.9363 3.29025 20.4863 6.44025 20.4863H11.5502C11.9602 20.4863 12.3002 20.8263 12.3002 21.2363C12.3002 21.6463 11.9702 21.9763 11.5502 21.9763Z" fill="#787E85"/>
<path d="M10 17.4766H6C5.59 17.4766 5.25 17.1366 5.25 16.7266C5.25 16.3166 5.59 15.9766 6 15.9766H10C10.41 15.9766 10.75 16.3166 10.75 16.7266C10.75 17.1366 10.41 17.4766 10 17.4766Z" fill="#787E85"/>
<path d="M18 23.4766C16.34 23.4766 14.78 22.5966 13.94 21.1666C13.49 20.4466 13.25 19.5966 13.25 18.7266C13.25 16.1066 15.38 13.9766 18 13.9766C20.62 13.9766 22.75 16.1066 22.75 18.7266C22.75 19.5966 22.51 20.4466 22.06 21.1766C21.22 22.5966 19.66 23.4766 18 23.4766ZM18 15.4766C16.21 15.4766 14.75 16.9366 14.75 18.7266C14.75 19.3166 14.91 19.8966 15.22 20.3966C15.8 21.3766 16.87 21.9766 18 21.9766C19.13 21.9766 20.2 21.3766 20.78 20.4066C21.09 19.8966 21.25 19.3266 21.25 18.7266C21.25 16.9366 19.79 15.4766 18 15.4766Z" fill="#787E85"/>
<path d="M17.4299 20.4661C17.2399 20.4661 17.0499 20.3961 16.8999 20.2461L15.9099 19.2561C15.6199 18.9661 15.6199 18.4861 15.9099 18.1961C16.1999 17.9061 16.6799 17.9061 16.9699 18.1961L17.4499 18.6761L19.0499 17.1961C19.3499 16.9161 19.8299 16.9361 20.1099 17.2361C20.3899 17.5361 20.3699 18.0161 20.0699 18.2961L17.9399 20.2661C17.7899 20.3961 17.6099 20.4661 17.4299 20.4661Z" fill="#787E85"/>
</svg>
