<svg width="24" height="25" viewBox="0 0 24 25" fill="none" xmlns="http://www.w3.org/2000/svg">
<path d="M17 21.9766H7C3.35 21.9766 1.25 19.8766 1.25 16.2266V9.22656C1.25 5.57656 3.35 3.47656 7 3.47656H17C20.65 3.47656 22.75 5.57656 22.75 9.22656V16.2266C22.75 19.8766 20.65 21.9766 17 21.9766ZM7 4.97656C4.14 4.97656 2.75 6.36656 2.75 9.22656V16.2266C2.75 19.0866 4.14 20.4766 7 20.4766H17C19.86 20.4766 21.25 19.0866 21.25 16.2266V9.22656C21.25 6.36656 19.86 4.97656 17 4.97656H7Z" fill="#787E85"/>
<path d="M11.9998 13.5965C11.1598 13.5965 10.3098 13.3365 9.65978 12.8065L6.52978 10.3065C6.20978 10.0465 6.14978 9.57653 6.40978 9.25653C6.66978 8.93653 7.13978 8.87654 7.45978 9.13654L10.5898 11.6365C11.3498 12.2465 12.6398 12.2465 13.3998 11.6365L16.5298 9.13654C16.8498 8.87654 17.3298 8.92653 17.5798 9.25653C17.8398 9.57653 17.7898 10.0565 17.4598 10.3065L14.3298 12.8065C13.6898 13.3365 12.8398 13.5965 11.9998 13.5965Z" fill="#787E85"/>
</svg>
