<svg width="24" height="25" viewBox="0 0 24 25" fill="none" xmlns="http://www.w3.org/2000/svg">
<path d="M18 11.6133C17.59 11.6133 17.25 11.2733 17.25 10.8633V8.86328C17.25 5.71328 16.36 3.61328 12 3.61328C7.64 3.61328 6.75 5.71328 6.75 8.86328V10.8633C6.75 11.2733 6.41 11.6133 6 11.6133C5.59 11.6133 5.25 11.2733 5.25 10.8633V8.86328C5.25 5.96328 5.95 2.11328 12 2.11328C18.05 2.11328 18.75 5.96328 18.75 8.86328V10.8633C18.75 11.2733 18.41 11.6133 18 11.6133Z" fill="#787E85"/>
<path d="M17 23.6133H7C2.59 23.6133 1.25 22.2733 1.25 17.8633V15.8633C1.25 11.4533 2.59 10.1133 7 10.1133H17C21.41 10.1133 22.75 11.4533 22.75 15.8633V17.8633C22.75 22.2733 21.41 23.6133 17 23.6133ZM7 11.6133C3.42 11.6133 2.75 12.2933 2.75 15.8633V17.8633C2.75 21.4333 3.42 22.1133 7 22.1133H17C20.58 22.1133 21.25 21.4333 21.25 17.8633V15.8633C21.25 12.2933 20.58 11.6133 17 11.6133H7Z" fill="#787E85"/>
<path d="M8 17.8632C7.87 17.8632 7.74 17.8332 7.62 17.7832C7.49 17.7332 7.39001 17.6631 7.29001 17.5731C7.11001 17.3831 7 17.1332 7 16.8632C7 16.7332 7.02999 16.6031 7.07999 16.4831C7.12999 16.3531 7.20001 16.2532 7.29001 16.1532C7.39001 16.0632 7.49 15.9931 7.62 15.9431C7.98 15.7831 8.42999 15.8732 8.70999 16.1532C8.79999 16.2532 8.87001 16.3631 8.92001 16.4831C8.97001 16.6031 9 16.7332 9 16.8632C9 17.1232 8.88999 17.3831 8.70999 17.5731C8.51999 17.7531 8.26 17.8632 8 17.8632Z" fill="#787E85"/>
<path d="M12 17.8632C11.74 17.8632 11.48 17.7532 11.29 17.5732C11.11 17.3832 11 17.1332 11 16.8632C11 16.7332 11.02 16.6032 11.08 16.4832C11.13 16.3632 11.2 16.2532 11.29 16.1532C11.52 15.9232 11.87 15.8132 12.19 15.8832C12.26 15.8932 12.32 15.9132 12.38 15.9432C12.44 15.9632 12.5 15.9932 12.56 16.0332C12.61 16.0632 12.66 16.1132 12.71 16.1532C12.8 16.2532 12.87 16.3632 12.92 16.4832C12.97 16.6032 13 16.7332 13 16.8632C13 17.1332 12.89 17.3832 12.71 17.5732C12.66 17.6132 12.61 17.6532 12.56 17.6932C12.5 17.7332 12.44 17.7632 12.38 17.7832C12.32 17.8132 12.26 17.8332 12.19 17.8432C12.13 17.8532 12.06 17.8632 12 17.8632Z" fill="#787E85"/>
<path d="M16 17.8632C15.73 17.8632 15.48 17.7532 15.29 17.5732C15.2 17.4732 15.13 17.3632 15.08 17.2432C15.03 17.1232 15 16.9932 15 16.8632C15 16.6032 15.11 16.3432 15.29 16.1532C15.34 16.1132 15.39 16.0732 15.44 16.0332C15.5 15.9932 15.56 15.9632 15.62 15.9432C15.68 15.9132 15.74 15.8932 15.8 15.8832C16.13 15.8132 16.47 15.9232 16.71 16.1532C16.89 16.3432 17 16.5932 17 16.8632C17 16.9932 16.97 17.1232 16.92 17.2432C16.87 17.3732 16.8 17.4732 16.71 17.5732C16.52 17.7532 16.26 17.8632 16 17.8632Z" fill="#787E85"/>
</svg>
