<svg width="24" height="25" viewBox="0 0 24 25" fill="none" xmlns="http://www.w3.org/2000/svg">
<path d="M17.9998 8.63634C17.9698 8.63634 17.9498 8.63634 17.9198 8.63634H17.8698C15.9798 8.57634 14.5698 7.11633 14.5698 5.31633C14.5698 3.47633 16.0698 1.98633 17.8998 1.98633C19.7298 1.98633 21.2298 3.48633 21.2298 5.31633C21.2198 7.12633 19.8098 8.58633 18.0098 8.64633C18.0098 8.63633 18.0098 8.63634 17.9998 8.63634ZM17.8998 3.47633C16.8898 3.47633 16.0698 4.29634 16.0698 5.30634C16.0698 6.29634 16.8398 7.09634 17.8298 7.13634C17.8398 7.12634 17.9198 7.12634 18.0098 7.13634C18.9798 7.08634 19.7298 6.28634 19.7398 5.30634C19.7398 4.29634 18.9198 3.47633 17.8998 3.47633Z" fill="#787E85"/>
<path d="M18.01 16.0062C17.62 16.0062 17.23 15.9762 16.84 15.9062C16.43 15.8362 16.16 15.4462 16.23 15.0362C16.3 14.6262 16.69 14.3562 17.1 14.4262C18.33 14.6362 19.63 14.4062 20.5 13.8262C20.97 13.5162 21.22 13.1262 21.22 12.7362C21.22 12.3462 20.96 11.9662 20.5 11.6562C19.63 11.0762 18.31 10.8462 17.07 11.0662C16.66 11.1462 16.27 10.8662 16.2 10.4562C16.13 10.0462 16.4 9.65622 16.81 9.58622C18.44 9.29622 20.13 9.60622 21.33 10.4062C22.21 10.9962 22.72 11.8362 22.72 12.7362C22.72 13.6262 22.22 14.4762 21.33 15.0762C20.42 15.6762 19.24 16.0062 18.01 16.0062Z" fill="#787E85"/>
<path d="M5.96998 8.63657C5.95998 8.63657 5.94998 8.63657 5.94998 8.63657C4.14998 8.57657 2.73998 7.11656 2.72998 5.31656C2.72998 3.47656 4.22998 1.97656 6.05998 1.97656C7.88998 1.97656 9.38998 3.47656 9.38998 5.30656C9.38998 7.11656 7.97998 8.57657 6.17998 8.63657L5.96998 7.88657L6.03998 8.63657C6.01998 8.63657 5.98998 8.63657 5.96998 8.63657ZM6.06998 7.13657C6.12998 7.13657 6.17998 7.13656 6.23998 7.14656C7.12998 7.10656 7.90998 6.30656 7.90998 5.31656C7.90998 4.30656 7.08998 3.48656 6.07998 3.48656C5.06998 3.48656 4.24998 4.30656 4.24998 5.31656C4.24998 6.29656 5.00998 7.08656 5.97998 7.14656C5.98998 7.13656 6.02998 7.13657 6.06998 7.13657Z" fill="#787E85"/>
<path d="M5.96 16.0062C4.73 16.0062 3.55 15.6762 2.64 15.0762C1.76 14.4862 1.25 13.6362 1.25 12.7362C1.25 11.8462 1.76 10.9962 2.64 10.4062C3.84 9.60622 5.53 9.29622 7.16 9.58622C7.57 9.65622 7.84 10.0462 7.77 10.4562C7.7 10.8662 7.31 11.1462 6.9 11.0662C5.66 10.8462 4.35 11.0762 3.47 11.6562C3 11.9662 2.75 12.3462 2.75 12.7362C2.75 13.1262 3.01 13.5162 3.47 13.8262C4.34 14.4062 5.64 14.6362 6.87 14.4262C7.28 14.3562 7.67 14.6362 7.74 15.0362C7.81 15.4462 7.54 15.8362 7.13 15.9062C6.74 15.9762 6.35 16.0062 5.96 16.0062Z" fill="#787E85"/>
<path d="M11.9998 16.107C11.9698 16.107 11.9498 16.107 11.9198 16.107H11.8698C9.97982 16.047 8.56982 14.587 8.56982 12.787C8.56982 10.947 10.0698 9.45703 11.8998 9.45703C13.7298 9.45703 15.2298 10.957 15.2298 12.787C15.2198 14.597 13.8098 16.057 12.0098 16.117C12.0098 16.107 12.0098 16.107 11.9998 16.107ZM11.8998 10.947C10.8898 10.947 10.0698 11.767 10.0698 12.777C10.0698 13.767 10.8398 14.567 11.8298 14.607C11.8398 14.597 11.9198 14.597 12.0098 14.607C12.9798 14.557 13.7298 13.757 13.7398 12.777C13.7398 11.777 12.9198 10.947 11.8998 10.947Z" fill="#787E85"/>
<path d="M11.9998 23.4863C10.7998 23.4863 9.59978 23.1763 8.66978 22.5463C7.78978 21.9563 7.27979 21.1163 7.27979 20.2163C7.27979 19.3263 7.77978 18.4663 8.66978 17.8763C10.5398 16.6363 13.4698 16.6363 15.3298 17.8763C16.2098 18.4663 16.7198 19.3063 16.7198 20.2063C16.7198 21.0963 16.2198 21.9563 15.3298 22.5463C14.3998 23.1663 13.1998 23.4863 11.9998 23.4863ZM9.49979 19.1363C9.02979 19.4463 8.77979 19.8363 8.77979 20.2263C8.77979 20.6163 9.03979 20.9963 9.49979 21.3063C10.8498 22.2163 13.1398 22.2163 14.4898 21.3063C14.9598 20.9963 15.2098 20.6063 15.2098 20.2163C15.2098 19.8263 14.9498 19.4463 14.4898 19.1363C13.1498 18.2263 10.8598 18.2363 9.49979 19.1363Z" fill="#787E85"/>
</svg>
