<svg width="24" height="25" viewBox="0 0 24 25" fill="none" xmlns="http://www.w3.org/2000/svg">
<path d="M12.1596 12.4833C12.1296 12.4833 12.1096 12.4833 12.0796 12.4833C12.0296 12.4733 11.9596 12.4733 11.8996 12.4833C8.99957 12.3933 6.80957 10.1133 6.80957 7.30328C6.80957 4.44328 9.13957 2.11328 11.9996 2.11328C14.8596 2.11328 17.1896 4.44328 17.1896 7.30328C17.1796 10.1133 14.9796 12.3933 12.1896 12.4833C12.1796 12.4833 12.1696 12.4833 12.1596 12.4833ZM11.9996 3.61328C9.96957 3.61328 8.30957 5.27328 8.30957 7.30328C8.30957 9.30328 9.86957 10.9133 11.8596 10.9833C11.9096 10.9733 12.0496 10.9733 12.1796 10.9833C14.1396 10.8933 15.6796 9.28328 15.6896 7.30328C15.6896 5.27328 14.0296 3.61328 11.9996 3.61328Z" fill="#787E85"/>
<path d="M12.1696 23.4133C10.2096 23.4133 8.23961 22.9133 6.74961 21.9133C5.35961 20.9933 4.59961 19.7333 4.59961 18.3633C4.59961 16.9933 5.35961 15.7233 6.74961 14.7933C9.74961 12.8033 14.6096 12.8033 17.5896 14.7933C18.9696 15.7133 19.7396 16.9733 19.7396 18.3433C19.7396 19.7133 18.9796 20.9833 17.5896 21.9133C16.0896 22.9133 14.1296 23.4133 12.1696 23.4133ZM7.57961 16.0533C6.61961 16.6933 6.09961 17.5133 6.09961 18.3733C6.09961 19.2233 6.62961 20.0433 7.57961 20.6733C10.0696 22.3433 14.2696 22.3433 16.7596 20.6733C17.7196 20.0333 18.2396 19.2133 18.2396 18.3533C18.2396 17.5033 17.7096 16.6833 16.7596 16.0533C14.2696 14.3933 10.0696 14.3933 7.57961 16.0533Z" fill="#787E85"/>
</svg>
