<svg width="24" height="25" viewBox="0 0 24 25" fill="none" xmlns="http://www.w3.org/2000/svg">
<path d="M5.47 11.4766C4.76 11.4766 4.04 11.2166 3.49 10.6866C1.65 8.93656 0.910002 7.02656 1.34 5.15656C1.85 2.95656 3.78 1.97656 5.47 1.97656C7.16 1.97656 9.1 2.96656 9.6 5.15656C10.03 7.02656 9.28 8.93656 7.45 10.6866C6.9 11.2166 6.19 11.4766 5.47 11.4766ZM2.8 5.49656C2.42 7.16656 3.53 8.64656 4.53 9.59656C5.06 10.1066 5.89 10.0966 6.42 9.59656C7.42 8.64656 8.53 7.16656 8.14 5.48656C7.8 4.00656 6.49 3.47656 5.48 3.47656C4.46 3.47656 3.15 4.00656 2.8 5.49656Z" fill="#787E85"/>
<path d="M5.51001 6.92676C4.96001 6.92676 4.51001 6.47676 4.51001 5.92676C4.51001 5.37676 4.95001 4.92676 5.51001 4.92676H5.52001C6.07001 4.92676 6.52001 5.37676 6.52001 5.92676C6.52001 6.47676 6.07001 6.92676 5.51001 6.92676Z" fill="#787E85"/>
<path d="M18.49 23.4768C17.78 23.4768 17.06 23.2168 16.5 22.6868C14.65 20.9368 13.9 19.0268 14.34 17.1468C14.85 14.9568 16.79 13.9668 18.49 13.9668C20.19 13.9668 22.13 14.9568 22.64 17.1468C23.07 19.0168 22.32 20.9368 20.47 22.6768C19.92 23.2168 19.21 23.4768 18.49 23.4768ZM18.49 15.4768C17.47 15.4768 16.15 16.0068 15.8 17.4968C15.41 19.1668 16.53 20.6568 17.53 21.6068C18.06 22.1168 18.9 22.1168 19.44 21.6068C20.44 20.6568 21.56 19.1768 21.17 17.5068C20.84 16.0068 19.52 15.4768 18.49 15.4768Z" fill="#787E85"/>
<path d="M18.53 18.9268C17.98 18.9268 17.53 18.4768 17.53 17.9268C17.53 17.3768 17.97 16.9268 18.53 16.9268H18.54C19.09 16.9268 19.54 17.3768 19.54 17.9268C19.54 18.4768 19.08 18.9268 18.53 18.9268Z" fill="#787E85"/>
<path d="M12 20.4766H9.32C8.16 20.4766 7.15 19.7766 6.75 18.6966C6.34 17.6166 6.64 16.4266 7.51 15.6566L15.5 8.66656C15.98 8.24656 15.99 7.67656 15.85 7.28656C15.7 6.89656 15.32 6.47656 14.68 6.47656H12C11.59 6.47656 11.25 6.13656 11.25 5.72656C11.25 5.31656 11.59 4.97656 12 4.97656H14.68C15.84 4.97656 16.85 5.67656 17.25 6.75656C17.66 7.83656 17.36 9.02656 16.49 9.79656L8.5 16.7866C8.02 17.2066 8.01 17.7766 8.15 18.1666C8.3 18.5566 8.68 18.9766 9.32 18.9766H12C12.41 18.9766 12.75 19.3166 12.75 19.7266C12.75 20.1366 12.41 20.4766 12 20.4766Z" fill="#787E85"/>
<path d="M12 20.4766H9.32C8.16 20.4766 7.15 19.7766 6.75 18.6966C6.34 17.6166 6.64 16.4266 7.51 15.6566L15.5 8.66656C15.98 8.24656 15.99 7.67656 15.85 7.28656C15.7 6.89656 15.32 6.47656 14.68 6.47656H12C11.59 6.47656 11.25 6.13656 11.25 5.72656C11.25 5.31656 11.59 4.97656 12 4.97656H14.68C15.84 4.97656 16.85 5.67656 17.25 6.75656C17.66 7.83656 17.36 9.02656 16.49 9.79656L8.5 16.7866C8.02 17.2066 8.01 17.7766 8.15 18.1666C8.3 18.5566 8.68 18.9766 9.32 18.9766H12C12.41 18.9766 12.75 19.3166 12.75 19.7266C12.75 20.1366 12.41 20.4766 12 20.4766Z" fill="#787E85"/>
</svg>
