<svg width="24" height="25" viewBox="0 0 24 25" fill="none" xmlns="http://www.w3.org/2000/svg">
<path d="M12 13.4766C8.83 13.4766 6.25 10.8966 6.25 7.72656C6.25 4.55656 8.83 1.97656 12 1.97656C15.17 1.97656 17.75 4.55656 17.75 7.72656C17.75 10.8966 15.17 13.4766 12 13.4766ZM12 3.47656C9.66 3.47656 7.75 5.38656 7.75 7.72656C7.75 10.0666 9.66 11.9766 12 11.9766C14.34 11.9766 16.25 10.0666 16.25 7.72656C16.25 5.38656 14.34 3.47656 12 3.47656Z" fill="#787E85"/>
<path d="M15.8201 23.4769C15.4401 23.4769 15.0801 23.3369 14.8201 23.0769C14.5101 22.7669 14.3701 22.3169 14.4401 21.8469L14.6301 20.4969C14.6801 20.1469 14.8901 19.7369 15.1401 19.4769L18.68 15.9369C20.1 14.517 21.3501 15.3269 21.9601 15.9369C22.4801 16.4569 22.7501 17.0169 22.7501 17.5769C22.7501 18.1469 22.4901 18.6769 21.9601 19.2069L18.42 22.7469C18.17 22.9969 17.7501 23.207 17.4001 23.257L16.05 23.4469C15.97 23.4669 15.9001 23.4769 15.8201 23.4769ZM20.31 16.6469C20.13 16.6469 19.97 16.7669 19.74 16.9969L16.2001 20.5369C16.1701 20.5669 16.12 20.6669 16.12 20.7069L15.9401 21.9569L17.1901 21.7769C17.2301 21.7669 17.33 21.7169 17.36 21.6869L20.9001 18.1469C21.0601 17.9869 21.2501 17.7569 21.2501 17.5769C21.2501 17.4269 21.1301 17.2169 20.9001 16.9969C20.6601 16.7569 20.48 16.6469 20.31 16.6469Z" fill="#787E85"/>
<path d="M20.9201 19.9469C20.8501 19.9469 20.7801 19.9369 20.7201 19.9169C19.4001 19.5469 18.3501 18.4969 17.9801 17.1769C17.8701 16.7769 18.1001 16.367 18.5001 16.257C18.9001 16.147 19.3101 16.3769 19.4201 16.7769C19.6501 17.5969 20.3001 18.2469 21.1201 18.4769C21.5201 18.5869 21.7501 19.0069 21.6401 19.3969C21.5501 19.7269 21.2501 19.9469 20.9201 19.9469Z" fill="#787E85"/>
<path d="M3.41016 23.4766C3.00016 23.4766 2.66016 23.1366 2.66016 22.7266C2.66016 18.4566 6.85018 14.9766 12.0002 14.9766C13.0902 14.9766 14.1702 15.1366 15.1802 15.4366C15.5802 15.5566 15.8002 15.9766 15.6802 16.3666C15.5602 16.7666 15.1402 16.9866 14.7502 16.8666C13.8702 16.6066 12.9502 16.4666 12.0002 16.4666C7.68018 16.4666 4.16016 19.2666 4.16016 22.7166C4.16016 23.1366 3.82016 23.4766 3.41016 23.4766Z" fill="#787E85"/>
</svg>
