<svg width="24" height="25" viewBox="0 0 24 25" fill="none" xmlns="http://www.w3.org/2000/svg">
<path d="M12.1596 12.3466C12.1296 12.3466 12.1096 12.3466 12.0796 12.3466C12.0296 12.3366 11.9596 12.3366 11.8996 12.3466C8.9996 12.2566 6.8096 9.97656 6.8096 7.16656C6.8096 4.30656 9.1396 1.97656 11.9996 1.97656C14.8596 1.97656 17.1896 4.30656 17.1896 7.16656C17.1796 9.97656 14.9796 12.2566 12.1896 12.3466C12.1796 12.3466 12.1696 12.3466 12.1596 12.3466ZM11.9996 3.47656C9.9696 3.47656 8.3096 5.13656 8.3096 7.16656C8.3096 9.16656 9.8696 10.7766 11.8596 10.8466C11.9096 10.8366 12.0496 10.8366 12.1796 10.8466C14.1396 10.7566 15.6796 9.14656 15.6896 7.16656C15.6896 5.13656 14.0296 3.47656 11.9996 3.47656Z" fill="#787E85"/>
<path d="M12.1696 23.2766C10.2096 23.2766 8.23961 22.7766 6.74961 21.7766C5.35961 20.8566 4.59961 19.5966 4.59961 18.2266C4.59961 16.8566 5.35961 15.5866 6.74961 14.6566C9.74961 12.6666 14.6096 12.6666 17.5896 14.6566C18.9696 15.5766 19.7396 16.8366 19.7396 18.2066C19.7396 19.5766 18.9796 20.8466 17.5896 21.7766C16.0896 22.7766 14.1296 23.2766 12.1696 23.2766ZM7.57961 15.9166C6.61961 16.5566 6.09961 17.3766 6.09961 18.2366C6.09961 19.0866 6.62961 19.9066 7.57961 20.5366C10.0696 22.2066 14.2696 22.2066 16.7596 20.5366C17.7196 19.8966 18.2396 19.0766 18.2396 18.2166C18.2396 17.3666 17.7096 16.5466 16.7596 15.9166C14.2696 14.2566 10.0696 14.2566 7.57961 15.9166Z" fill="#787E85"/>
</svg>
