<svg width="40" height="40" viewBox="0 0 40 40" fill="none" xmlns="http://www.w3.org/2000/svg">
<path d="M24.9999 21.5835H13.3333C12.6499 21.5835 12.0833 21.0168 12.0833 20.3335C12.0833 19.6502 12.6499 19.0835 13.3333 19.0835H24.9999C25.6833 19.0835 26.2499 19.6502 26.2499 20.3335C26.2499 21.0168 25.6833 21.5835 24.9999 21.5835Z" fill="#4921FF"/>
<path d="M20.6333 28.25H13.3333C12.6499 28.25 12.0833 27.6833 12.0833 27C12.0833 26.3167 12.6499 25.75 13.3333 25.75H20.6333C21.3166 25.75 21.8833 26.3167 21.8833 27C21.8833 27.6833 21.3166 28.25 20.6333 28.25Z" fill="#4921FF"/>
<path d="M23.3333 11.2502H16.6666C15.0666 11.2502 12.0833 11.2502 12.0833 6.66683C12.0833 2.0835 15.0666 2.0835 16.6666 2.0835H23.3333C24.9333 2.0835 27.9166 2.0835 27.9166 6.66683C27.9166 8.26683 27.9166 11.2502 23.3333 11.2502ZM16.6666 4.5835C15.0166 4.5835 14.5833 4.5835 14.5833 6.66683C14.5833 8.75016 15.0166 8.75016 16.6666 8.75016H23.3333C25.4166 8.75016 25.4166 8.31683 25.4166 6.66683C25.4166 4.5835 24.9833 4.5835 23.3333 4.5835H16.6666Z" fill="#4921FF"/>
<path d="M25 37.9169H15C5.63333 37.9169 3.75 33.6169 3.75 26.6669V16.6669C3.75 9.06688 6.5 5.81688 13.2667 5.46688C13.9333 5.43355 14.55 5.95021 14.5833 6.65021C14.6167 7.35021 14.0833 7.91688 13.4 7.95021C8.66667 8.21688 6.25 9.63355 6.25 16.6669V26.6669C6.25 32.8335 7.46667 35.4169 15 35.4169H25C32.5333 35.4169 33.75 32.8335 33.75 26.6669V16.6669C33.75 9.63355 31.3333 8.21688 26.6 7.95021C25.9167 7.91688 25.3833 7.31688 25.4167 6.63355C25.45 5.95021 26.05 5.41688 26.7333 5.45021C33.5 5.81688 36.25 9.06688 36.25 16.6502V26.6502C36.25 33.6169 34.3667 37.9169 25 37.9169Z" fill="#4921FF"/>
</svg>
