<svg width="24" height="25" viewBox="0 0 24 25" fill="none" xmlns="http://www.w3.org/2000/svg">
<path d="M12 23.25C6.07 23.25 1.25 18.43 1.25 12.5C1.25 6.57 6.07 1.75 12 1.75C17.93 1.75 22.75 6.57 22.75 12.5C22.75 18.43 17.93 23.25 12 23.25ZM12 3.25C6.9 3.25 2.75 7.4 2.75 12.5C2.75 17.6 6.9 21.75 12 21.75C17.1 21.75 21.25 17.6 21.25 12.5C21.25 7.4 17.1 3.25 12 3.25Z" fill="#4921FF"/>
<path d="M10.6549 15.3987C10.4649 15.3987 10.2749 15.3287 10.1249 15.1787L8.51486 13.5687C8.22486 13.2787 8.22486 12.7987 8.51486 12.5087C8.80486 12.2187 9.28486 12.2187 9.57486 12.5087L10.6549 13.5887L14.4249 9.8187C14.7149 9.5287 15.1949 9.5287 15.4849 9.8187C15.7749 10.1087 15.7749 10.5887 15.4849 10.8787L11.1849 15.1787C11.0349 15.3287 10.8449 15.3987 10.6549 15.3987Z" fill="#4921FF"/>
</svg>
