<svg width="24" height="24" viewBox="0 0 24 24" fill="none" xmlns="http://www.w3.org/2000/svg">
<path d="M12 22.75C6.07 22.75 1.25 17.93 1.25 12C1.25 6.07 6.07 1.25 12 1.25C17.93 1.25 22.75 6.07 22.75 12C22.75 17.93 17.93 22.75 12 22.75ZM12 2.75C6.9 2.75 2.75 6.9 2.75 12C2.75 17.1 6.9 21.25 12 21.25C17.1 21.25 21.25 17.1 21.25 12C21.25 6.9 17.1 2.75 12 2.75Z" fill="#4921FF"/>
<path d="M10.6549 14.8987C10.4649 14.8987 10.2749 14.8287 10.1249 14.6787L8.51486 13.0687C8.22486 12.7787 8.22486 12.2987 8.51486 12.0087C8.80486 11.7187 9.28486 11.7187 9.57486 12.0087L10.6549 13.0887L14.4249 9.3187C14.7149 9.0287 15.1949 9.0287 15.4849 9.3187C15.7749 9.6087 15.7749 10.0887 15.4849 10.3787L11.1849 14.6787C11.0349 14.8287 10.8449 14.8987 10.6549 14.8987Z" fill="#4921FF"/>
</svg>
